:SAMPLES-PER-SECOND 30
:FULLY-SPECIFIED
:DEGREES
1368
root  16.2121 36.667 23.9969 174.702 -8.66551 173.533
RightUpLeg  -6.49765 3.71074 -15.9188
RightLeg  23.9418 -19.1026 -9.21066
RightFoot  -9.93625 24.1726 -172.653
RightToes  -6.98493e-010 0 -3.6325e-017
Spine  11.5102 -2.43295 -1.10397
Spine1  12.5548 -2.14346 -5.04672
HEad  55.1075 8.56856 -150.502
LeftShoulder1  0.344021 2.47872 -27.3997
LeftArm  -15.2562 6.28203 -36.0084
LeftForeArm  77.6173 -79.0375 -95.802
LeftHand  -0.0815367 1.15303 2.09248
RightShoulder  -0.128075 -3.93249 21.7584
RightArm  -11.2572 -3.4544 35.9893
RightForeArm  102.802 75.0998 131.067
RightHand  -0.0574312 -1.72944 -1.51445
LeftUpLeg  -12.5813 7.35123 19.3224
LeftLeg  20.5882 -1.33871 1.26696
LeftFoot  -11.7271 0.0521608 -5.18373
LeftToes  7.91257e-010 -1.64976e-010 -3.02228e-011
1369
root  15.1086 36.3465 23.9976 174.592 -8.42857 174.503
RightUpLeg  -6.78834 3.52926 -16.8365
RightLeg  24.355 -16.0434 -8.00597
RightFoot  -9.44264 26.498 -171.204
RightToes  -6.98493e-010 0 -3.6325e-017
Spine  11.5967 -2.43832 -0.96229
Spine1  12.5283 -2.18548 -4.93592
HEad  55.2806 8.03666 -150.054
LeftShoulder1  0.362613 2.40284 -26.7634
LeftArm  -15.4741 6.14175 -36.4025
LeftForeArm  81.1992 -78.938 -99.5206
LeftHand  -0.0777415 1.3478 2.05592
RightShoulder  -0.151631 -4.0126 21.942
RightArm  -11.2773 -3.94317 35.6906
RightForeArm  102.833 74.8067 132.129
RightHand  -0.093013 -0.881569 -2.30725
LeftUpLeg  -12.3925 8.15844 20.4141
LeftLeg  21.29 1.7573 2.02643
LeftFoot  -10.77 0.0845059 -5.58864
LeftToes  7.91257e-010 -1.64976e-010 -3.02228e-011
1370
root  13.8856 36.1061 24.0076 173.907 -7.99429 175.599
RightUpLeg  -5.76096 4.48937 -17.6052
RightLeg  22.4862 -6.31328 -3.06551
RightFoot  -8.14154 37.2171 -169.76
RightToes  -6.98493e-010 0 -3.6325e-017
Spine  12.3136 -2.40214 -0.385808
Spine1  12.479 -2.01444 -5.50148
HEad  56.2121 7.27115 -149.348
LeftShoulder1  0.374858 2.35406 -26.3929
LeftArm  -15.4246 5.61967 -36.4868
LeftForeArm  84.7508 -78.7782 -103.356
LeftHand  -0.0720957 1.81896 2.04852
RightShoulder  -0.107546 -3.85666 21.9657
RightArm  -11.9847 -5.07251 35.3667
RightForeArm  104.206 74.3896 133.806
RightHand  -0.0884955 -0.957655 -2.20317
LeftUpLeg  -11.7204 9.36439 21.2197
LeftLeg  22.8733 4.5094 2.74105
LeftFoot  -8.62173 0.320976 -9.29189
LeftToes  7.91257e-010 -1.64976e-010 -3.02228e-011
1371
root  12.5782 35.8489 24.059 174.007 -8.10905 176.4
RightUpLeg  -5.27274 5.85499 -18.823
RightLeg  21.2337 4.42452 1.70273
RightFoot  -6.01061 49.7273 -167.314
RightToes  -6.98493e-010 0 -3.6325e-017
Spine  12.3424 -2.35015 -1.24654
Spine1  12.7782 -2.32477 -4.41963
HEad  56.995 6.46284 -148.904
LeftShoulder1  0.292526 2.59155 -25.8656
LeftArm  -15.1213 4.81914 -36.9877
LeftForeArm  87.991 -78.5986 -106.738
LeftHand  -0.092973 1.02643 2.36175
RightShoulder  -0.118664 -3.89029 22.344
RightArm  -12.5458 -5.55288 34.8207
RightForeArm  104.473 74.245 134.323
RightHand  -0.0794542 -1.03568 -1.98976
LeftUpLeg  -12.9562 11.4203 21.3074
LeftLeg  25.0043 2.83172 1.70494
LeftFoot  -3.99339 1.03784 -16.2602
LeftToes  7.91257e-010 -1.64976e-010 -3.02228e-011
1372
root  11.2226 35.6461 24.126 174.207 -8.76399 176.432
RightUpLeg  -4.04615 7.23319 -20.9031
RightLeg  19.5812 17.0173 6.19607
RightFoot  6.00787 64.1311 -155.264
RightToes  -6.98493e-010 0 -3.6325e-017
Spine  13.2406 -2.0014 -3.08601
Spine1  11.7599 -2.64714 -2.42397
HEad  57.4631 6.34603 -148.296
LeftShoulder1  0.323211 2.48883 -25.6166
LeftArm  -14.0976 3.84669 -37.4101
LeftForeArm  89.3127 -78.5707 -107.566
LeftHand  -0.0862733 1.05839 2.19092
RightShoulder  -0.078836 -3.7556 21.9957
RightArm  -13.8255 -8.00503 35.1216
RightForeArm  105.7 73.9483 135.446
RightHand  -0.0796928 -1.09686 -2.01451
LeftUpLeg  -16.0311 16.3347 19.393
LeftLeg  29.7131 -3.09484 -1.50425
LeftFoot  -1.73362 1.22453 -14.3446
LeftToes  7.91257e-010 -1.64976e-010 -3.02228e-011
1373
root  9.85001 35.6395 24.1478 174.649 -9.68924 175.945
RightUpLeg  -1.85955 7.78658 -23.3714
RightLeg  24.8808 39.5694 19.0317
RightFoot  -51.9134 87.183 146.338
RightToes  -6.98493e-010 0 -3.6325e-017
Spine  13.4499 -1.67525 -4.49497
Spine1  10.9603 -2.64761 -1.81232
HEad  57.5305 7.22348 -147.857
LeftShoulder1  0.401642 2.24764 -25.7665
LeftArm  -12.4461 2.25113 -37.368
LeftForeArm  87.5988 -78.663 -105.912
LeftHand  -0.107978 1.14389 2.81816
RightShoulder  -0.153156 -4.0169 22.008
RightArm  -15.3013 -10.9747 34.8364
RightForeArm  108.212 73.2461 137.901
RightHand  -0.0780615 -1.04768 -1.97748
LeftUpLeg  -18.2683 17.3589 16.5189
LeftLeg  33.6099 -4.024 -2.49444
LeftFoot  -4.16194 0.846454 -12.9805
LeftToes  7.91257e-010 -1.64976e-010 -3.02228e-011
1374
root  8.52453 35.7571 24.197 174.76 -9.83995 175.794
RightUpLeg  0.507062 6.21904 -24.3845
RightLeg  -13.6066 82.3255 -13.5777
RightFoot  152.112 40.8402 -9.71258
RightToes  -6.98493e-010 0 -3.6325e-017
Spine  13.4557 -1.38245 -5.09141
Spine1  10.9212 -2.41497 -2.00539
HEad  57.8385 7.92287 -147.888
LeftShoulder1  0.362654 2.37001 -25.7724
LeftArm  -11.041 0.655158 -37.8298
LeftForeArm  83.3996 -78.8266 -102.116
LeftHand  -0.127112 1.10759 3.33456
RightShoulder  -0.136059 -3.95408 22.0975
RightArm  -16.6333 -12.4813 34.7615
RightForeArm  108.724 73.2032 138.091
RightHand  -0.0577012 -0.459794 -1.29926
LeftUpLeg  -19.3018 18.1943 14.1421
LeftLeg  36.2882 -4.26375 -2.95454
LeftFoot  -6.44399 0.493873 -10.6822
LeftToes  7.91257e-010 -1.64976e-010 -3.02228e-011
1375
root  7.35873 35.9622 24.2613 175.193 -9.075 176.06
RightUpLeg  1.24255 0.259436 -23.8577
RightLeg  161.94 36.2131 162.597
RightFoot  159.978 -12.6102 2.10622
RightToes  -6.98493e-010 0 -3.6325e-017
Spine  13.2547 -1.02196 -4.79138
Spine1  10.8619 -1.71038 -3.06282
HEad  55.8597 1.3195 -143.5
LeftShoulder1  0.372342 2.32999 -25.4991
LeftArm  -10.4016 0.294862 -38.7033
LeftForeArm  81.3459 -78.9424 -99.5556
LeftHand  -0.121158 1.31922 3.30447
RightShoulder  -0.20551 -4.18175 22.8435
RightArm  -17.1018 -12.5396 34.6515
RightForeArm  107.657 73.8116 136.191
RightHand  -0.038975 -0.913311 -0.892359
LeftUpLeg  -19.9949 17.7371 12.3813
LeftLeg  37.6566 -2.84785 -1.9545
LeftFoot  -7.91584 0.330586 -9.47234
LeftToes  7.91257e-010 -1.64976e-010 -3.02228e-011
1376
root  6.26434 36.3314 24.3113 175.658 -7.35187 176.14
RightUpLeg  -0.860031 1.99165 -23.8753
RightLeg  168.102 23.4512 173.003
RightFoot  158.665 -26.3749 3.14601
RightToes  -6.98493e-010 0 -3.6325e-017
Spine  12.9041 -0.407874 -4.71553
Spine1  11.0514 -0.898742 -3.39875
HEad  46.4568 -22.2338 -129.586
LeftShoulder1  0.394938 2.25867 -25.5016
LeftArm  -10.3639 1.08419 -38.7639
LeftForeArm  83.2951 -78.9049 -101.12
LeftHand  -0.109541 1.28587 2.95312
RightShoulder  -0.165973 -4.0423 23.0325
RightArm  -16.8574 -12.0066 34.8669
RightForeArm  104.732 74.7295 132.742
RightHand  -0.0329592 -0.904274 -0.723429
LeftUpLeg  -19.5325 17.4949 10.603
LeftLeg  37.1617 -0.809381 -0.261336
LeftFoot  -8.42889 0.255107 -8.07145
LeftToes  7.91257e-010 -1.64976e-010 -3.02228e-011
1377
root  5.31736 36.7682 24.3989 175.727 -5.85199 176.099
RightUpLeg  -4.3274 6.1441 -22.9524
RightLeg  155.5 41.5242 165.144
RightFoot  163.398 -7.36621 1.1308
RightToes  -6.98493e-010 0 -3.6325e-017
Spine  13.2515 0.0635457 -5.15969
Spine1  10.9413 -0.49712 -3.25767
HEad  47.0219 -21.0531 -131.732
LeftShoulder1  0.350452 2.40595 -25.6934
LeftArm  -10.6303 1.81455 -37.8825
LeftForeArm  84.3017 -78.8308 -102.537
LeftHand  -0.113838 1.58896 3.25276
RightShoulder  -0.118594 -3.87864 23.2051
RightArm  -15.6943 -10.7292 34.9881
RightForeArm  99.7135 75.6882 128.134
RightHand  -0.0672046 -0.554154 -1.55705
LeftUpLeg  -18.1968 17.3086 8.9923
LeftLeg  35.4246 0.830702 1.03842
LeftFoot  -8.40227 0.231399 -7.05064
LeftToes  7.91257e-010 -1.64976e-010 -3.02228e-011
1378
root  4.58596 37.1185 24.4576 176.065 -5.23241 176.317
RightUpLeg  -7.57627 3.42019 -19.6777
RightLeg  133.792 55.2056 141.774
RightFoot  167.032 13.3817 0.550314
RightToes  -6.98493e-010 0 -3.6325e-017
Spine  13.287 0.181106 -6.29591
Spine1  10.7218 -0.639529 -2.85567
HEad  46.0386 -22.144 -130.713
LeftShoulder1  0.284079 2.60184 -25.2664
LeftArm  -11.4256 3.15164 -37.648
LeftForeArm  85.6002 -78.7408 -104.186
LeftHand  -0.137229 1.14038 3.6253
RightShoulder  -0.136534 -3.93318 23.6346
RightArm  -13.9549 -9.2653 35.1027
RightForeArm  95.7071 76.3549 124.248
RightHand  -0.0743524 -0.382138 -1.68171
LeftUpLeg  -17.5779 17.1437 7.80388
LeftLeg  33.8345 1.79095 1.69604
LeftFoot  -8.32201 0.218794 -6.41361
LeftToes  7.91257e-010 -1.64976e-010 -3.02228e-011
1379
root  3.91056 37.4875 24.4611 176.44 -5.3345 176.454
RightUpLeg  -9.27359 1.74162 -16.072
RightLeg  109.762 60.3215 115.162
RightFoot  170.619 25.6586 1.31383
RightToes  -6.98493e-010 0 -3.6325e-017
Spine  13.0642 0.0682216 -7.18606
Spine1  10.5746 -0.934284 -2.50274
HEad  45.4433 -22.1664 -130.019
LeftShoulder1  0.279886 2.60652 -24.9435
LeftArm  -11.8658 3.97174 -36.9576
LeftForeArm  86.9352 -78.6665 -105.59
LeftHand  -0.109938 1.59008 3.15813
RightShoulder  -0.147725 -3.96846 23.7473
RightArm  -13.0598 -8.97249 35.9095
RightForeArm  94.4342 76.6851 122.257
RightHand  -0.0559494 -0.877102 -1.33501
LeftUpLeg  -16.7906 17.8466 6.54958
LeftLeg  31.6286 1.72639 1.56927
LeftFoot  -7.93016 0.208949 -5.43059
LeftToes  7.91257e-010 -1.64976e-010 -3.02228e-011
1380
root  3.26783 37.8234 24.4021 177.022 -5.77992 176.389
RightUpLeg  -10.3046 -0.114128 -12.4998
RightLeg  76.2162 57.6827 76.1753
RightFoot  173.018 45.4593 1.79633
RightToes  -6.98493e-010 0 -3.6325e-017
Spine  12.555 -0.0964572 -8.23571
Spine1  10.222 -1.36101 -1.53137
HEad  45.6399 -21.7157 -130.138
LeftShoulder1  0.271556 2.64315 -25.3249
LeftArm  -11.9228 4.22123 -35.8629
LeftForeArm  87.4695 -78.6072 -106.42
LeftHand  -0.107828 1.51258 3.0034
RightShoulder  -0.181863 -4.08047 23.8349
RightArm  -12.0899 -9.27061 35.7991
RightForeArm  93.7199 76.7172 121.903
RightHand  -0.0655848 -0.953315 -1.6009
LeftUpLeg  -16.0466 18.119 5.19469
LeftLeg  29.2575 1.52192 1.18307
LeftFoot  -7.63872 0.188528 -4.40526
LeftToes  7.91257e-010 -1.64976e-010 -3.02228e-011
1381
root  2.65829 38.0907 24.3152 177.619 -5.6418 176.164
RightUpLeg  -10.9727 -0.70868 -8.97553
RightLeg  30.962 27.7512 16.0786
RightFoot  -42.2153 82.0513 147.588
RightToes  -6.98493e-010 0 -3.6325e-017
Spine  12.0124 -0.0490536 -9.11506
Spine1  9.61682 -1.42064 -0.672303
HEad  45.8749 -20.7747 -130.301
LeftShoulder1  0.253526 2.71356 -25.8588
LeftArm  -11.9205 4.97216 -34.8566
LeftForeArm  89.712 -78.4654 -108.689
LeftHand  -0.0737534 1.81362 2.12194
RightShoulder  -0.17475 -4.06426 23.4509
RightArm  -11.517 -10.3262 35.9332
RightForeArm  95.6531 76.4734 123.639
RightHand  -0.0520595 -0.75586 -1.20772
LeftUpLeg  -15.1472 17.2022 4.23839
LeftLeg  27.1651 2.92617 0.917675
LeftFoot  -7.68757 0.186944 -4.41461
LeftToes  7.91257e-010 -1.64976e-010 -3.02228e-011
1382
root  2.04331 38.3334 24.1825 178.247 -5.0784 175.791
RightUpLeg  -10.9765 -0.119758 -5.93571
RightLeg  23.7915 -15.923 -8.41924
RightFoot  -10.2446 31.9238 -177.556
RightToes  -6.98493e-010 0 -3.6325e-017
Spine  11.1087 -0.211911 -9.27868
Spine1  9.42757 -1.27087 -0.897152
HEad  46.2762 -20.6977 -130.589
LeftShoulder1  0.205911 2.85486 -25.4933
LeftArm  -12.0143 6.28192 -34.4519
LeftForeArm  93.341 -78.1825 -112.426
LeftHand  -0.0946992 1.39324 2.58064
RightShoulder  -0.191077 -4.10936 23.8721
RightArm  -11.0565 -10.5273 35.7687
RightForeArm  97.0248 76.323 124.7
RightHand  -0.0462416 -0.960896 -1.07752
LeftUpLeg  -14.061 14.8031 3.32238
LeftLeg  25.0077 6.13417 1.07358
LeftFoot  -7.64201 0.187379 -4.38355
LeftToes  7.91257e-010 -1.64976e-010 -3.02228e-011
